<svg aria-hidden="true" xmlns="http://www.w3.org/2000/svg">
<defs>
<symbol id="icon-Linkedin" viewBox="0 0 33 32">
<path d="M6.724 3.996c0 1.885-1.479 3.366-3.362 3.366s-3.362-1.481-3.362-3.366c0-1.885 1.479-3.366 3.362-3.366s3.362 1.481 3.362 3.366zM6.724 10.056h-6.724v21.545h6.724v-21.545zM17.482 10.056h-6.724v21.545h6.724v-11.311c0-6.329 8.069-6.867 8.069 0v11.311h6.724v-13.6c0-10.638-11.968-10.234-14.792-4.982v-2.963z"></path>
</symbol>
<symbol id="icon-Instagram" viewBox="0 0 33 32">
<path d="M16.382 3.414c4.233 0 4.762 0 6.481 0.129 4.365 0.129 6.349 2.188 6.481 6.307 0.132 1.673 0.132 2.060 0.132 6.179s0 4.634-0.132 6.179c-0.132 4.119-2.249 6.179-6.481 6.308-1.72 0.129-2.116 0.129-6.481 0.129-4.233 0-4.762 0-6.349-0.129-4.365-0.129-6.349-2.188-6.481-6.308-0.132-1.673-0.132-2.060-0.132-6.179s0-4.634 0.132-6.179c0.132-4.119 2.249-6.179 6.481-6.308 1.587-0.129 2.116-0.129 6.349-0.129zM16.382 0.582c-4.365 0-4.894 0-6.481 0.129-5.82 0.257-8.994 3.347-9.259 9.011-0.132 1.545-0.132 2.060-0.132 6.307s0 4.763 0.132 6.307c0.265 5.664 3.439 8.753 9.259 9.011 1.587 0.129 2.116 0.129 6.481 0.129s4.894 0 6.481-0.129c5.82-0.258 8.994-3.347 9.259-9.011 0.132-1.545 0.132-2.060 0.132-6.307s0-4.763-0.132-6.307c-0.265-5.664-3.439-8.753-9.259-9.011-1.587-0.129-2.116-0.129-6.481-0.129zM16.382 8.048c-4.497 0-8.201 3.604-8.201 7.981s3.704 7.981 8.201 7.981c4.497 0 8.201-3.604 8.201-7.981s-3.704-7.981-8.201-7.981zM16.382 21.178c-2.91 0-5.291-2.317-5.291-5.149s2.381-5.149 5.291-5.149c2.91 0 5.291 2.317 5.291 5.149s-2.381 5.149-5.291 5.149zM24.847 5.988c-1.058 0-1.852 0.772-1.852 1.802s0.794 1.802 1.852 1.802 1.852-0.772 1.852-1.802c0-1.030-0.794-1.802-1.852-1.802z"></path>
</symbol>
<symbol id="icon-Twitter" viewBox="0 0 39 32">
<path d="M12.024 31.796c14.428 0 22.318-11.969 22.318-22.348 0-0.34-0.007-0.678-0.023-1.015 1.532-1.109 2.863-2.492 3.913-4.067-1.405 0.625-2.918 1.046-4.505 1.236 1.619-0.972 2.863-2.511 3.45-4.345-1.516 0.9-3.194 1.554-4.981 1.907-1.432-1.527-3.47-2.482-5.726-2.482-4.332 0-7.845 3.518-7.845 7.854 0 0.617 0.069 1.216 0.203 1.791-6.519-0.328-12.3-3.454-16.168-8.206-0.674 1.16-1.063 2.509-1.063 3.948 0 2.725 1.385 5.131 3.491 6.538-1.287-0.040-2.496-0.394-3.553-0.983-0.002 0.033-0.002 0.066-0.002 0.1 0 3.804 2.704 6.98 6.293 7.7-0.659 0.18-1.352 0.276-2.068 0.276-0.505 0-0.997-0.051-1.475-0.142 0.998 3.12 3.894 5.392 7.328 5.456-2.685 2.107-6.067 3.362-9.742 3.362-0.633 0-1.257-0.036-1.871-0.109 3.471 2.228 7.593 3.528 12.024 3.528z"></path>
</symbol>
<symbol id="icon-Facebook" viewBox="0 0 16 32">
<path d="M4.269 10.743h-3.91v5.221h3.91v15.662h6.517v-15.662h4.692l0.521-5.221h-5.214v-2.219c0-1.175 0.261-1.697 1.434-1.697h3.78v-6.526h-4.953c-4.692 0-6.778 2.088-6.778 6.004v4.438z"></path>
</symbol>
</defs>
</svg>
